<svg width="160" height="160" viewBox="0 0 160 160" fill="none" xmlns="http://www.w3.org/2000/svg">
<mask id="mask0_1507_21" style="mask-type:alpha" maskUnits="userSpaceOnUse" x="0" y="0" width="160" height="160">
<rect width="160" height="160" fill="#D9D9D9"/>
</mask>
<g mask="url(#mask0_1507_21)">
<path d="M140.109 83.7807C140.109 105.474 128.566 124.473 111.274 134.938C110.556 135.387 109.837 135.791 109.119 136.196L115.721 87.1493C115.856 86.1612 115.137 85.2629 114.194 85.1281C113.206 84.9934 112.307 85.6671 112.173 86.6552L105.256 138.127C103.504 138.935 101.708 139.654 99.9111 140.283L104.852 87.0594C104.942 86.0713 104.223 85.218 103.235 85.1281C102.247 85.0383 101.348 85.7569 101.303 86.745L96.1833 141.45C94.4765 141.9 92.68 142.304 90.9283 142.618L93.6681 86.9696C93.713 85.9815 92.9494 85.1281 91.9613 85.0832C90.9732 85.0383 90.1198 85.8019 90.0749 86.79L87.2903 143.157C85.5835 143.337 83.9217 143.472 82.17 143.517V86.9247C82.17 85.9366 81.3616 85.1281 80.3735 85.1281C79.3854 85.1281 78.5769 85.9366 78.5769 86.9247V143.561C77.0049 143.517 75.4778 143.427 73.9508 143.247L71.1661 86.8349C71.1212 85.8468 70.2678 85.0832 69.2797 85.1281C68.2916 85.1731 67.528 86.0264 67.5729 87.0145L70.3127 142.753C68.5161 142.439 66.7645 142.079 65.0578 141.63L59.8926 86.745C59.8028 85.7569 58.9494 85.0383 57.9613 85.1281C56.9732 85.218 56.2546 86.1162 56.3444 87.0594L61.3299 140.507C59.4884 139.878 57.7368 139.205 55.9851 138.441L49.0234 86.7001C48.8887 85.712 47.9904 85.0383 47.0023 85.1731C46.0142 85.3078 45.3404 86.2061 45.4752 87.1942L52.0776 136.555C51.2242 136.106 50.4157 135.657 49.6073 135.162C32.1806 124.697 20.5029 105.609 20.5029 83.7807C20.5029 50.7688 47.2718 24 80.2837 24C113.34 24 140.109 50.7688 140.109 83.7807Z" fill="#F2F2F7" stroke="#D1D1D6" stroke-width="2" stroke-miterlimit="10"/>
<path d="M98.0403 86.2987C96.4944 64.9615 96.0299 54.8128 89.4444 44.9068C89.3612 44.782 89.1879 44.7543 89.07 44.8513C87.7807 45.9189 86.3526 48.2758 85.7565 50.7783C83.5382 50.3693 81.313 49.9465 79.0392 50.0851C77.6459 50.1683 76.2733 50.5288 74.9007 50.7783C74.3046 48.2689 72.8835 45.9189 71.5872 44.8513C71.4693 44.7543 71.296 44.782 71.2128 44.9068C64.6273 54.8128 64.1628 64.9615 62.6169 86.2987L80.3286 84.8707L98.0403 86.2987Z" fill="white" stroke="#D1D1D6" stroke-width="2" stroke-miterlimit="10"/>
<path d="M74.1034 64.4209C72.3427 64.4209 70.7205 63.4642 69.8679 61.9253C69.6669 61.5579 69.7986 61.0934 70.166 60.8855C70.5334 60.6844 70.9978 60.8161 71.2058 61.1835C71.795 62.2372 72.9042 62.8958 74.1104 62.8958C75.3166 62.8958 76.4326 62.2372 77.0149 61.1835C77.216 60.8161 77.6804 60.6844 78.0548 60.8855C78.4222 61.0865 78.5539 61.551 78.3528 61.9253C77.4863 63.4642 75.8642 64.4209 74.1034 64.4209Z" fill="#AEAEB2"/>
<path d="M86.6022 64.4209C84.8414 64.4209 83.2193 63.4642 82.3667 61.9253C82.1656 61.5579 82.2973 61.0934 82.6648 60.8855C83.0322 60.6844 83.4966 60.8161 83.7046 61.1835C84.2938 62.2372 85.403 62.8958 86.6091 62.8958C87.8153 62.8958 88.9314 62.2372 89.5137 61.1835C89.7148 60.8161 90.1792 60.6844 90.5535 60.8855C90.9209 61.0865 91.0527 61.551 90.8516 61.9253C89.9851 63.4642 88.363 64.4209 86.6022 64.4209Z" fill="#AEAEB2"/>
<path d="M76.0446 70.3545C76.0099 70.3545 75.9684 70.3545 75.9268 70.3476L68.1419 69.1691C67.726 69.1067 67.4418 68.7185 67.5042 68.3026C67.5666 67.8867 67.9548 67.6024 68.3707 67.6648L76.1555 68.8433C76.5715 68.9057 76.8557 69.2939 76.7933 69.7098C76.7378 70.0842 76.412 70.3545 76.0446 70.3545Z" fill="#AEAEB2"/>
<path d="M69.6461 73.6612C69.2509 73.6612 68.9112 73.3562 68.8835 72.9472C68.8558 72.5244 69.1747 72.1639 69.5906 72.1362L75.989 71.6994C76.4049 71.6717 76.7723 71.9906 76.8 72.4065C76.8278 72.8294 76.5089 73.1898 76.093 73.2176L69.6946 73.6543C69.6807 73.6612 69.6599 73.6612 69.6461 73.6612Z" fill="#AEAEB2"/>
<path d="M84.6265 70.3546C84.2591 70.3546 83.9333 70.0843 83.8709 69.703C83.8085 69.2871 84.0927 68.8989 84.5086 68.8365L92.2935 67.658C92.7094 67.5956 93.0976 67.8798 93.16 68.2958C93.2224 68.7117 92.9382 69.0999 92.5222 69.1623L84.7374 70.3407C84.7027 70.3546 84.6681 70.3546 84.6265 70.3546Z" fill="#AEAEB2"/>
<path d="M91.0249 73.6611C91.0041 73.6611 90.9903 73.6611 90.9695 73.6611L84.5711 73.2244C84.1482 73.1967 83.8363 72.8293 83.864 72.4133C83.8917 71.9974 84.2522 71.6785 84.6751 71.7063L91.0735 72.143C91.4963 72.1707 91.8083 72.5381 91.7805 72.9541C91.7597 73.3561 91.427 73.6611 91.0249 73.6611Z" fill="#AEAEB2"/>
<path d="M81.299 68.1088C80.9108 68.0464 79.7462 68.0464 79.3511 68.1088C78.9352 68.1781 78.4153 68.2821 78.5816 69.2526C78.6718 69.7795 78.9906 70.2439 79.4066 70.5905C80.1414 71.2005 80.5018 71.1312 81.0841 70.7014C81.5625 70.3548 81.9576 69.8418 82.0616 69.2457C82.2418 68.2752 81.715 68.1712 81.299 68.1088Z" fill="#AEAEB2"/>
<path d="M17.9043 32.1874C29.2938 35.8214 39.8699 42.2436 48.153 50.8703C49.8123 52.7272 51.6669 54.6955 52.3899 57.0592C53.6561 60.5131 52.6032 64.8558 50.0864 67.453C47.5136 70.1484 43.3232 71.1406 39.6664 69.8356C37.3354 69.1565 35.2855 67.0768 35.0234 64.5858C34.915 62.0523 36.7195 59.5693 39.0803 58.8343C41.5531 57.9031 44.1914 58.4973 46.2842 59.821C48.377 61.1447 50.078 63.1554 51.318 65.2936C55.5263 71.9865 56.9533 80.6055 55.2393 88.6038C53.947 94.501 50.868 99.8996 46.6455 104.126" stroke="#D1D1D6" stroke-width="2" stroke-miterlimit="10" stroke-dasharray="4 4"/>
<path d="M17.3252 26.3939C18.2316 27.3011 17.9506 28.7018 16.5951 29.4897C15.2813 30.4315 14.2891 31.0364 13.4243 30.283C12.6155 29.4315 13.1896 28.1979 13.8757 26.768C14.632 24.9879 16.3628 25.5848 17.3252 26.3939Z" fill="#F2F2F7" stroke="#D1D1D6" stroke-width="2" stroke-miterlimit="10" stroke-linejoin="round"/>
<path d="M12.8717 36.4721C14.0307 36.4827 15.4005 35.4427 15.0812 33.9598C14.7203 32.323 14.5404 31.0497 13.2838 30.9834C12.1248 30.9728 11.97 31.9252 11.2136 33.7053C10.7229 35.2466 11.5591 36.504 12.8717 36.4721Z" fill="#F2F2F7" stroke="#D1D1D6" stroke-width="2" stroke-miterlimit="10" stroke-linejoin="round"/>
<path d="M11.7209 30.0919C12.0151 29.3491 12.7977 28.8848 13.4957 29.0227C13.747 29.036 14.096 29.105 14.2914 29.2164C15.7707 29.8 16.6629 30.9592 16.3127 31.8002C16.0042 32.795 14.5237 33.1213 13.1979 32.4953C12.8072 32.2725 12.6119 32.1611 12.3189 31.9939C11.6912 31.5058 11.4267 30.8347 11.7209 30.0919C11.7769 29.9937 11.7209 30.0919 11.7209 30.0919Z" fill="#F2F2F7"/>
<path d="M11.7209 30.0919C12.0151 29.3491 12.7977 28.8848 13.4957 29.0227C13.747 29.036 14.096 29.105 14.2914 29.2164C15.7707 29.8 16.6629 30.9592 16.3127 31.8002C16.0042 32.795 14.5237 33.1213 13.1979 32.4953C12.8072 32.2725 12.6119 32.1611 12.3189 31.9939C11.6912 31.5058 11.4267 30.8347 11.7209 30.0919ZM11.7209 30.0919C11.7209 30.0919 11.7769 29.9937 11.7209 30.0919Z" stroke="#D1D1D6" stroke-width="2" stroke-miterlimit="10" stroke-linejoin="round"/>
<path d="M118.811 85.0361L117.7 88.4531L128.165 91.8545L129.276 88.4374L118.811 85.0361Z" fill="#F2F2F7" stroke="#D1D1D6" stroke-width="2" stroke-miterlimit="10"/>
<path d="M41.737 85.0445L31.2722 88.4458L32.3829 91.8629L42.8476 88.4615L41.737 85.0445Z" fill="#F2F2F7" stroke="#D1D1D6" stroke-width="2" stroke-miterlimit="10"/>
<path d="M119.898 80.0977L111.23 134.938C110.511 135.387 109.792 135.791 109.074 136.195C107.816 136.914 106.514 137.543 105.166 138.172C103.414 138.98 101.618 139.699 99.8213 140.328C98.6086 140.732 97.3511 141.136 96.0935 141.495C94.3867 141.944 92.5902 142.349 90.8385 142.663C89.6258 142.888 88.4131 143.067 87.2005 143.202C85.4937 143.382 83.8319 143.516 82.0802 143.561C81.4514 143.561 80.8676 143.606 80.2388 143.606C79.6549 143.606 79.071 143.606 78.4871 143.561C76.9151 143.516 75.388 143.427 73.861 143.247C72.6483 143.112 71.4356 142.933 70.2229 142.753C68.4263 142.438 66.6747 142.079 64.968 141.63C63.7104 141.316 62.4977 140.911 61.2401 140.507C59.3986 139.878 57.647 139.205 55.8953 138.441C54.5928 137.857 53.2903 137.228 51.9878 136.555C51.1344 136.106 50.3259 135.656 49.5175 135.162L40.5347 81.6696L50.7302 80.1426H119.898V80.0977Z" fill="white" stroke="#D1D1D6" stroke-width="2" stroke-miterlimit="10"/>
<path d="M55.9851 138.441C54.6825 137.857 53.38 137.228 52.0775 136.555L45.4751 87.1491C45.3404 86.161 46.0141 85.2627 47.0022 85.128C47.9903 84.9932 48.8886 85.6669 49.0234 86.6551L55.9851 138.441Z" fill="#F2F2F7"/>
<path d="M65.0128 141.63C63.7552 141.316 62.5425 140.911 61.2849 140.507L56.2995 87.0592C56.2096 86.0711 56.9283 85.2178 57.9164 85.1279C58.9045 85.0381 59.8028 85.7567 59.8477 86.7448L65.0128 141.63Z" fill="#F2F2F7"/>
<path d="M73.9058 143.247C72.6931 143.112 71.4804 142.932 70.2678 142.753L67.528 87.0143C67.4831 86.0262 68.2466 85.1728 69.2347 85.1279C70.2228 85.083 71.0762 85.8465 71.1211 86.8346L73.9058 143.247Z" fill="#F2F2F7"/>
<path d="M82.125 86.9245V143.561C81.4962 143.561 80.9124 143.606 80.2836 143.606C79.6997 143.606 79.1158 143.606 78.5319 143.561V86.9245C78.5319 85.9364 79.3404 85.1279 80.3285 85.1279C81.3615 85.1279 82.125 85.9364 82.125 86.9245Z" fill="#F2F2F7"/>
<path d="M93.6231 87.0143L90.8833 142.663C89.6706 142.887 88.4579 143.067 87.2453 143.202L90.0299 86.8346C90.0749 85.8465 90.9282 85.083 91.9163 85.1279C92.9044 85.1728 93.668 86.0262 93.6231 87.0143Z" fill="#F2F2F7"/>
<path d="M104.807 87.1042L99.8662 140.327C98.6535 140.732 97.3959 141.136 96.1383 141.495L101.259 86.7898C101.348 85.8017 102.202 85.0831 103.19 85.1729C104.178 85.2627 104.941 86.1161 104.807 87.1042Z" fill="#F2F2F7"/>
<path d="M115.676 87.1491L109.074 136.195C107.816 136.914 106.513 137.543 105.166 138.172L112.128 86.6999C112.262 85.7118 113.161 85.0381 114.149 85.1728C115.137 85.2627 115.811 86.161 115.676 87.1491Z" fill="#F2F2F7"/>
<path d="M55.9851 138.441C54.6825 137.857 53.38 137.228 52.0775 136.555L45.4751 87.1491C45.3404 86.161 46.0141 85.2627 47.0022 85.128C47.9903 84.9932 48.8886 85.6669 49.0234 86.6551L55.9851 138.441Z" stroke="#D1D1D6" stroke-width="2" stroke-miterlimit="10"/>
<path d="M65.0128 141.63C63.7552 141.316 62.5425 140.911 61.2849 140.507L56.2995 87.0592C56.2096 86.0711 56.9283 85.2178 57.9164 85.1279C58.9045 85.0381 59.8028 85.7567 59.8477 86.7448L65.0128 141.63Z" stroke="#D1D1D6" stroke-width="2" stroke-miterlimit="10"/>
<path d="M73.9058 143.247C72.6931 143.112 71.4804 142.932 70.2678 142.753L67.528 87.0143C67.4831 86.0262 68.2466 85.1728 69.2347 85.1279C70.2228 85.083 71.0762 85.8465 71.1211 86.8346L73.9058 143.247Z" stroke="#D1D1D6" stroke-width="2" stroke-miterlimit="10"/>
<path d="M82.125 86.9245V143.561C81.4962 143.561 80.9124 143.606 80.2836 143.606C79.6997 143.606 79.1158 143.606 78.5319 143.561V86.9245C78.5319 85.9364 79.3404 85.1279 80.3285 85.1279C81.3615 85.1279 82.125 85.9364 82.125 86.9245Z" stroke="#D1D1D6" stroke-width="2" stroke-miterlimit="10"/>
<path d="M93.6231 87.0143L90.8833 142.663C89.6706 142.887 88.4579 143.067 87.2453 143.202L90.0299 86.8346C90.0749 85.8465 90.9282 85.083 91.9163 85.1279C92.9044 85.1728 93.668 86.0262 93.6231 87.0143Z" stroke="#D1D1D6" stroke-width="2" stroke-miterlimit="10"/>
<path d="M104.807 87.1042L99.8662 140.327C98.6535 140.732 97.3959 141.136 96.1383 141.495L101.259 86.7898C101.348 85.8017 102.202 85.0831 103.19 85.1729C104.178 85.2627 104.941 86.1161 104.807 87.1042Z" stroke="#D1D1D6" stroke-width="2" stroke-miterlimit="10"/>
<path d="M115.676 87.1491L109.074 136.195C107.816 136.914 106.513 137.543 105.166 138.172L112.128 86.6999C112.262 85.7118 113.161 85.0381 114.149 85.1728C115.137 85.2627 115.811 86.161 115.676 87.1491Z" stroke="#D1D1D6" stroke-width="2" stroke-miterlimit="10"/>
<path d="M120.078 81.6699H40.5796C39.7262 81.6699 39.0525 80.9962 39.0525 80.1428C39.0525 79.2894 39.7262 78.6157 40.5796 78.6157H120.078C120.931 78.6157 121.605 79.2894 121.605 80.1428C121.605 80.9513 120.931 81.6699 120.078 81.6699Z" fill="white" stroke="#D1D1D6" stroke-width="2" stroke-miterlimit="10"/>
<path d="M134.368 56.8653C133.224 56.5022 132.802 55.2322 133.494 53.809C134.186 52.3858 134.721 51.2311 135.951 51.589C137.01 51.9572 137.092 53.334 137.185 54.8827C137.218 56.8669 135.341 57.2387 134.368 56.8653Z" fill="#F2F2F7" stroke="#D1D1D6" stroke-width="2" stroke-miterlimit="10" stroke-linejoin="round"/>
<path d="M133.373 46.0446C132.28 46.5419 131.766 48.0408 132.704 49.2798C133.819 50.5946 134.483 51.591 135.657 51.0024C136.75 50.505 136.435 49.574 136.149 47.6914C135.803 46.2441 134.466 45.5472 133.373 46.0446Z" fill="#F2F2F7" stroke="#D1D1D6" stroke-width="2" stroke-miterlimit="10" stroke-linejoin="round"/>
<path d="M136.196 52.7832C135.943 52.8848 135.69 52.9863 135.431 53.0018C134.065 53.2565 132.824 52.7265 132.687 51.8712C132.549 51.0159 133.621 50.1744 135.079 50.0006C135.418 49.8939 135.762 49.8732 136.025 49.9438C136.633 49.9937 137.18 50.4789 137.221 51.1673C137.348 51.8505 136.874 52.5698 136.196 52.7832Z" fill="#F2F2F7" stroke="#D1D1D6" stroke-width="2" stroke-miterlimit="10" stroke-linejoin="round"/>
<path d="M106.872 77.8592C105.974 58.5697 122.351 52.3191 131.386 51.7769" stroke="#D1D1D6" stroke-width="2" stroke-miterlimit="10" stroke-dasharray="4 4"/>
</g>
</svg>
