<svg width="192" height="192" viewBox="0 0 192 192" fill="none" xmlns="http://www.w3.org/2000/svg">
<path d="M95.5683 154.205C129.143 154.205 156.363 126.985 156.363 93.2902C156.363 59.5955 129.023 32.376 95.5683 32.376C61.9935 32.376 34.7739 59.5955 34.7739 93.2902C34.7739 126.985 61.9935 154.205 95.5683 154.205Z" fill="#F2F2F7" stroke="#D1D1D6" stroke-width="2" stroke-miterlimit="10"/>
<path d="M144.087 133.036H47.0493C42.5879 133.036 38.9629 129.411 38.9629 124.949V62.7671C38.9629 58.3056 42.5879 54.6807 47.0493 54.6807H144.087C148.548 54.6807 152.173 58.3056 152.173 62.7671V125.228C151.894 129.411 148.269 133.036 144.087 133.036Z" fill="white" stroke="#D1D1D6" stroke-width="2" stroke-miterlimit="10"/>
<rect x="55.8271" y="57.5459" width="18.4031" height="6.17882" fill="#F2F2F7" stroke="#D1D1D6" stroke-width="2" stroke-miterlimit="10"/>
<rect x="116.274" y="57.5459" width="17.9809" height="6.17882" fill="#F2F2F7" stroke="#D1D1D6" stroke-width="2" stroke-miterlimit="10"/>
<path d="M71.0298 43.5269H59.0396V60.3925H71.0298V43.5269Z" fill="white" stroke="#D1D1D6" stroke-width="2" stroke-miterlimit="10"/>
<path d="M131.266 43.5269H119.275V60.3925H131.266V43.5269Z" fill="white" stroke="#D1D1D6" stroke-width="2" stroke-miterlimit="10"/>
<path d="M74.0971 97.3441C79.1791 97.3441 83.2989 93.2243 83.2989 88.1423C83.2989 83.0602 79.1791 78.9404 74.0971 78.9404C69.0151 78.9404 64.8953 83.0602 64.8953 88.1423C64.8953 93.2243 69.0151 97.3441 74.0971 97.3441Z" stroke="#AEAEB2" stroke-width="4" stroke-miterlimit="10" stroke-linecap="round" stroke-linejoin="round"/>
<path d="M59.3186 112.405C59.3186 104.319 66.0108 97.6265 74.0973 97.6265C82.1837 97.6265 88.876 104.319 88.876 112.405" stroke="#AEAEB2" stroke-width="4" stroke-miterlimit="10" stroke-linecap="round" stroke-linejoin="round"/>
<path d="M104.212 86.4688H134.049" stroke="#AEAEB2" stroke-width="4" stroke-miterlimit="10" stroke-linecap="round" stroke-linejoin="round"/>
<path d="M104.212 101.526H115.924" stroke="#AEAEB2" stroke-width="4" stroke-miterlimit="10" stroke-linecap="round" stroke-linejoin="round"/>
<path d="M114.07 144.789C113.683 146.432 113.103 148.173 112.427 149.623C110.59 153.2 107.689 156.004 104.112 157.841C100.438 159.678 96.0875 160.451 91.7368 159.484C81.4886 157.357 74.9143 147.302 77.0413 137.054C79.1682 126.806 89.1264 120.135 99.3746 122.359C103.049 123.132 106.239 124.969 108.946 127.483C113.49 132.027 115.424 138.601 114.07 144.789Z" fill="#D1D1D6" stroke="#AEAEB2" stroke-width="2" stroke-miterlimit="10"/>
<path d="M101.164 135.361C102.195 136.393 102.079 137.948 101.164 138.864L99.1066 140.921L101.164 142.978C102.08 143.894 102.195 145.449 101.163 146.481C100.131 147.512 98.5765 147.397 97.6606 146.481L95.6035 144.424L93.5464 146.481C92.5148 147.513 90.96 147.397 90.044 146.481C89.0123 145.449 89.1274 143.894 90.0433 142.978L92.1004 140.921L90.0433 138.864C89.5669 138.387 89.2893 137.771 89.2893 137.112C89.2893 136.454 89.5669 135.838 90.0433 135.361C91.075 134.33 92.6305 134.445 93.5464 135.361L95.6035 137.418L97.6606 135.361C98.6924 134.329 100.248 134.445 101.164 135.361Z" fill="white" stroke="#AEAEB2" stroke-width="2"/>
</svg>
